<mxfile host="65bd71144e" modified="2021-01-06T04:50:10.344Z" agent="5.0 (Windows NT 10.0; Win64; x64) AppleWebKit/537.36 (KHTML, like Gecko) Code/1.52.1 Chrome/83.0.4103.122 Electron/9.3.5 Safari/537.36" etag="B7Psa_d3mw1kRw4rgPL-" version="13.10.0" type="embed">
    <diagram id="6hGFLwfOUW9BJ-s0fimq" name="Page-1">
        <mxGraphModel dx="2864" dy="552" grid="0" gridSize="10" guides="1" tooltips="1" connect="1" arrows="1" fold="1" page="0" pageScale="1" pageWidth="827" pageHeight="1169" background="none" math="1" shadow="0">
            <root>
                <mxCell id="0"/>
                <mxCell id="1" parent="0"/>
                <mxCell id="406" value="" style="edgeStyle=orthogonalEdgeStyle;rounded=0;orthogonalLoop=1;jettySize=auto;exitX=0.5;exitY=1;exitDx=0;exitDy=0;strokeWidth=2;fontFamily=Times New Roman;html=1;entryX=0.5;entryY=0;entryDx=0;entryDy=0;" parent="1" source="413" target="418" edge="1">
                    <mxGeometry relative="1" as="geometry">
                        <mxPoint x="-125" y="824" as="sourcePoint"/>
                        <mxPoint x="-125" y="854" as="targetPoint"/>
                    </mxGeometry>
                </mxCell>
                <mxCell id="407" value="" style="edgeStyle=orthogonalEdgeStyle;rounded=0;orthogonalLoop=1;jettySize=auto;entryX=0.5;entryY=0;entryDx=0;entryDy=0;strokeWidth=2;fontFamily=Times New Roman;html=1;exitX=0.5;exitY=1;exitDx=0;exitDy=0;" parent="1" source="418" target="414" edge="1">
                    <mxGeometry relative="1" as="geometry">
                        <mxPoint x="-125" y="984" as="targetPoint"/>
                        <mxPoint x="-125" y="934" as="sourcePoint"/>
                    </mxGeometry>
                </mxCell>
                <mxCell id="408" value="" style="edgeStyle=orthogonalEdgeStyle;rounded=0;orthogonalLoop=1;jettySize=auto;entryX=0.5;entryY=0;entryDx=0;entryDy=0;entryPerimeter=0;exitX=0.5;exitY=1;exitDx=0;exitDy=0;strokeWidth=2;fontFamily=Times New Roman;html=1;" parent="1" source="414" target="409" edge="1">
                    <mxGeometry relative="1" as="geometry">
                        <mxPoint x="-125" y="1094" as="targetPoint"/>
                        <mxPoint x="-125" y="1044" as="sourcePoint"/>
                    </mxGeometry>
                </mxCell>
                <mxCell id="409" value="结束" style="strokeWidth=2;shape=mxgraph.flowchart.terminator;fontFamily=Times New Roman;" parent="1" vertex="1">
                    <mxGeometry x="-185" y="1074" width="120" height="60" as="geometry"/>
                </mxCell>
                <mxCell id="410" value="" style="edgeStyle=orthogonalEdgeStyle;rounded=0;orthogonalLoop=1;jettySize=auto;fontFamily=Times New Roman;entryX=0.5;entryY=0;entryDx=0;entryDy=0;strokeWidth=2;html=1;exitX=0.5;exitY=1;exitDx=0;exitDy=0;" parent="1" source="417" target="415" edge="1">
                    <mxGeometry relative="1" as="geometry">
                        <mxPoint x="-125" y="634" as="targetPoint"/>
                        <mxPoint x="-125" y="594" as="sourcePoint"/>
                    </mxGeometry>
                </mxCell>
                <mxCell id="411" value="" style="edgeStyle=orthogonalEdgeStyle;rounded=0;orthogonalLoop=1;jettySize=auto;fontFamily=Times New Roman;strokeWidth=2;html=1;entryX=0;entryY=0.5;entryDx=0;entryDy=0;" parent="1" source="412" target="417" edge="1">
                    <mxGeometry relative="1" as="geometry">
                        <mxPoint x="-178.9000000000001" y="564" as="targetPoint"/>
                    </mxGeometry>
                </mxCell>
                <mxCell id="412" value="开始" style="strokeWidth=2;shape=mxgraph.flowchart.terminator;fontFamily=Times New Roman;" parent="1" vertex="1">
                    <mxGeometry x="-365" y="534" width="120" height="60" as="geometry"/>
                </mxCell>
                <mxCell id="413" value="计算天气温暖等级 &lt;i&gt;W&lt;font style=&quot;font-size: 12px&quot;&gt;&lt;sub&gt;w&lt;/sub&gt;&lt;/font&gt;&lt;/i&gt;" style="rounded=1;absoluteArcSize=1;arcSize=14;strokeWidth=2;fontFamily=Times New Roman;html=1;" parent="1" vertex="1">
                    <mxGeometry x="-188" y="754" width="126" height="60" as="geometry"/>
                </mxCell>
                <mxCell id="414" value="输出：&#10;推荐衣物信息&#10;和雨具携带提示" style="shape=parallelogram;strokeWidth=2;perimeter=parallelogramPerimeter;rounded=1;arcSize=12;size=0.23;fontFamily=Times New Roman;" parent="1" vertex="1">
                    <mxGeometry x="-196" y="974" width="142" height="60" as="geometry"/>
                </mxCell>
                <mxCell id="415" value="解压 JSON 文件，&#10;获取主要天气信息" style="rounded=1;absoluteArcSize=1;arcSize=14;strokeWidth=2;fontFamily=Times New Roman;" parent="1" vertex="1">
                    <mxGeometry x="-188" y="644" width="126" height="60" as="geometry"/>
                </mxCell>
                <mxCell id="416" value="" style="edgeStyle=orthogonalEdgeStyle;rounded=0;orthogonalLoop=1;jettySize=auto;fontFamily=Times New Roman;entryX=0.5;entryY=0;entryDx=0;entryDy=0;strokeWidth=2;html=1;exitX=0.5;exitY=1;exitDx=0;exitDy=0;" parent="1" source="415" target="413" edge="1">
                    <mxGeometry relative="1" as="geometry">
                        <mxPoint x="-15" y="652" as="targetPoint"/>
                        <mxPoint x="-115" y="604" as="sourcePoint"/>
                    </mxGeometry>
                </mxCell>
                <mxCell id="417" value="调用天气 API，获取&#10;返回的JSON 文件" style="rounded=1;absoluteArcSize=1;arcSize=14;strokeWidth=2;fontFamily=Times New Roman;" parent="1" vertex="1">
                    <mxGeometry x="-188" y="534" width="126" height="60" as="geometry"/>
                </mxCell>
                <mxCell id="418" value="查找衣物 &lt;i&gt;c&lt;/i&gt; 使&lt;br&gt;min|&lt;i&gt;W&lt;sub&gt;c&lt;/sub&gt;+W&lt;sub&gt;w&lt;/sub&gt;-W&lt;sub&gt;a&lt;/sub&gt;&lt;/i&gt;|" style="rounded=1;absoluteArcSize=1;arcSize=14;strokeWidth=2;fontFamily=Times New Roman;html=1;" parent="1" vertex="1">
                    <mxGeometry x="-188" y="863" width="126" height="60" as="geometry"/>
                </mxCell>
                <mxCell id="419" value="降水量 &gt; 0？" style="strokeWidth=2;shape=mxgraph.flowchart.decision;fontFamily=Times New Roman;" parent="1" vertex="1">
                    <mxGeometry y="688" width="120" height="80" as="geometry"/>
                </mxCell>
                <mxCell id="420" value="" style="edgeStyle=orthogonalEdgeStyle;rounded=0;orthogonalLoop=1;jettySize=auto;fontFamily=Times New Roman;entryX=0;entryY=0.5;entryDx=0;entryDy=0;strokeWidth=2;html=1;exitX=0.5;exitY=1;exitDx=0;exitDy=0;entryPerimeter=0;" parent="1" source="415" target="419" edge="1">
                    <mxGeometry relative="1" as="geometry">
                        <mxPoint x="-115" y="764" as="targetPoint"/>
                        <mxPoint x="-115" y="714" as="sourcePoint"/>
                    </mxGeometry>
                </mxCell>
                <mxCell id="421" value="提示用户携带雨具" style="rounded=1;absoluteArcSize=1;arcSize=14;strokeWidth=2;fontFamily=Times New Roman;html=1;" parent="1" vertex="1">
                    <mxGeometry x="-3" y="814" width="126" height="60" as="geometry"/>
                </mxCell>
                <mxCell id="423" value="" style="edgeStyle=orthogonalEdgeStyle;rounded=0;orthogonalLoop=1;jettySize=auto;fontFamily=Times New Roman;entryX=0.5;entryY=0;entryDx=0;entryDy=0;strokeWidth=2;html=1;exitX=0.5;exitY=1;exitDx=0;exitDy=0;exitPerimeter=0;" parent="1" source="419" target="421" edge="1">
                    <mxGeometry relative="1" as="geometry">
                        <mxPoint x="10" y="738" as="targetPoint"/>
                        <mxPoint x="-121" y="714" as="sourcePoint"/>
                    </mxGeometry>
                </mxCell>
                <mxCell id="424" value="Yes" style="edgeLabel;html=1;align=center;verticalAlign=middle;resizable=0;points=[];" parent="423" vertex="1" connectable="0">
                    <mxGeometry x="-0.1668" y="-2" relative="1" as="geometry">
                        <mxPoint x="14" as="offset"/>
                    </mxGeometry>
                </mxCell>
                <mxCell id="425" value="" style="edgeStyle=orthogonalEdgeStyle;rounded=0;orthogonalLoop=1;jettySize=auto;fontFamily=Times New Roman;strokeWidth=2;html=1;exitX=1;exitY=0.5;exitDx=0;exitDy=0;exitPerimeter=0;entryX=0.5;entryY=0;entryDx=0;entryDy=0;" parent="1" source="419" target="414" edge="1">
                    <mxGeometry relative="1" as="geometry">
                        <mxPoint x="-14" y="940" as="targetPoint"/>
                        <mxPoint x="-115" y="714" as="sourcePoint"/>
                        <Array as="points">
                            <mxPoint x="158" y="728"/>
                            <mxPoint x="158" y="943"/>
                            <mxPoint x="-125" y="943"/>
                        </Array>
                    </mxGeometry>
                </mxCell>
                <mxCell id="426" value="No" style="edgeLabel;html=1;align=center;verticalAlign=middle;resizable=0;points=[];" parent="425" vertex="1" connectable="0">
                    <mxGeometry x="0.1171" y="-3" relative="1" as="geometry">
                        <mxPoint x="49" y="-225.06" as="offset"/>
                    </mxGeometry>
                </mxCell>
                <mxCell id="427" value="" style="edgeStyle=orthogonalEdgeStyle;rounded=0;orthogonalLoop=1;jettySize=auto;fontFamily=Times New Roman;entryX=0.5;entryY=0;entryDx=0;entryDy=0;strokeWidth=2;html=1;exitX=0.5;exitY=1;exitDx=0;exitDy=0;" parent="1" source="421" target="414" edge="1">
                    <mxGeometry relative="1" as="geometry">
                        <mxPoint x="16" y="738" as="targetPoint"/>
                        <mxPoint x="-115" y="714" as="sourcePoint"/>
                        <Array as="points">
                            <mxPoint x="60" y="943"/>
                            <mxPoint x="-125" y="943"/>
                        </Array>
                    </mxGeometry>
                </mxCell>
                <mxCell id="428" value="Login UI" style="shape=umlLifeline;perimeter=lifelinePerimeter;whiteSpace=wrap;html=1;container=1;collapsible=0;recursiveResize=0;outlineConnect=0;" vertex="1" parent="1">
                    <mxGeometry x="-1406" y="657" width="100" height="300" as="geometry"/>
                </mxCell>
                <mxCell id="435" value="" style="html=1;points=[];perimeter=orthogonalPerimeter;" vertex="1" parent="428">
                    <mxGeometry x="45" y="71" width="10" height="42" as="geometry"/>
                </mxCell>
                <mxCell id="429" value="Chat UI" style="shape=umlLifeline;perimeter=lifelinePerimeter;whiteSpace=wrap;html=1;container=1;collapsible=0;recursiveResize=0;outlineConnect=0;" vertex="1" parent="1">
                    <mxGeometry x="-1249" y="657" width="100" height="300" as="geometry"/>
                </mxCell>
                <mxCell id="439" value="" style="html=1;points=[];perimeter=orthogonalPerimeter;" vertex="1" parent="429">
                    <mxGeometry x="46" y="112" width="10" height="166" as="geometry"/>
                </mxCell>
                <mxCell id="430" value="Server" style="shape=umlLifeline;perimeter=lifelinePerimeter;whiteSpace=wrap;html=1;container=1;collapsible=0;recursiveResize=0;outlineConnect=0;" vertex="1" parent="1">
                    <mxGeometry x="-1082" y="657" width="100" height="300" as="geometry"/>
                </mxCell>
                <mxCell id="443" value="" style="html=1;points=[];perimeter=orthogonalPerimeter;" vertex="1" parent="430">
                    <mxGeometry x="45" y="68" width="10" height="216" as="geometry"/>
                </mxCell>
                <mxCell id="432" value="User" style="shape=umlLifeline;participant=umlActor;perimeter=lifelinePerimeter;whiteSpace=wrap;html=1;container=1;collapsible=0;recursiveResize=0;verticalAlign=top;spacingTop=36;outlineConnect=0;" vertex="1" parent="1">
                    <mxGeometry x="-1500" y="654" width="20" height="300" as="geometry"/>
                </mxCell>
                <mxCell id="438" value="" style="html=1;points=[];perimeter=orthogonalPerimeter;" vertex="1" parent="432">
                    <mxGeometry x="5" y="69" width="10" height="219" as="geometry"/>
                </mxCell>
                <mxCell id="436" value="输入用户名&lt;br&gt;服务器地址、端口号" style="html=1;verticalAlign=bottom;endArrow=block;" edge="1" target="435" parent="1">
                    <mxGeometry relative="1" as="geometry">
                        <mxPoint x="-1485" y="734" as="sourcePoint"/>
                        <mxPoint x="-1382" y="734" as="targetPoint"/>
                    </mxGeometry>
                </mxCell>
                <mxCell id="441" value="传入信息、创建聊天窗口" style="html=1;verticalAlign=bottom;endArrow=block;exitX=0.933;exitY=0.948;exitDx=0;exitDy=0;exitPerimeter=0;" edge="1" parent="1" source="435" target="439">
                    <mxGeometry relative="1" as="geometry">
                        <mxPoint x="-1328" y="774" as="sourcePoint"/>
                        <mxPoint x="-1204" y="774" as="targetPoint"/>
                    </mxGeometry>
                </mxCell>
                <mxCell id="444" value="建立连接、发送登录信息" style="html=1;verticalAlign=bottom;endArrow=block;exitX=1.022;exitY=0.069;exitDx=0;exitDy=0;exitPerimeter=0;" edge="1" parent="1" source="439" target="443">
                    <mxGeometry relative="1" as="geometry">
                        <mxPoint x="-1183" y="780" as="sourcePoint"/>
                        <mxPoint x="-1033" y="780" as="targetPoint"/>
                    </mxGeometry>
                </mxCell>
                <mxCell id="445" value="返回在线用户列表" style="html=1;verticalAlign=bottom;endArrow=open;dashed=1;endSize=8;entryX=1.078;entryY=0.182;entryDx=0;entryDy=0;entryPerimeter=0;" edge="1" parent="1" source="443" target="439">
                    <mxGeometry relative="1" as="geometry">
                        <mxPoint x="-1182" y="799" as="targetPoint"/>
                        <mxPoint x="-1034" y="799" as="sourcePoint"/>
                    </mxGeometry>
                </mxCell>
                <mxCell id="451" value="返回消息数据" style="html=1;verticalAlign=bottom;endArrow=open;dashed=1;endSize=8;exitX=-0.4;exitY=0.597;exitDx=0;exitDy=0;exitPerimeter=0;" edge="1" parent="1" source="439" target="438">
                    <mxGeometry relative="1" as="geometry">
                        <mxPoint x="-1399" y="878" as="targetPoint"/>
                        <mxPoint x="-1236" y="878" as="sourcePoint"/>
                    </mxGeometry>
                </mxCell>
                <mxCell id="453" value="发送聊天信息" style="html=1;verticalAlign=bottom;endArrow=block;exitX=1.1;exitY=0.392;exitDx=0;exitDy=0;exitPerimeter=0;" edge="1" parent="1">
                    <mxGeometry relative="1" as="geometry">
                        <mxPoint x="-1192" y="837.0720000000001" as="sourcePoint"/>
                        <mxPoint x="-1037" y="837.0720000000001" as="targetPoint"/>
                    </mxGeometry>
                </mxCell>
                <mxCell id="454" value="返回聊天信息" style="html=1;verticalAlign=bottom;endArrow=open;dashed=1;endSize=8;entryX=0.967;entryY=0.5;entryDx=0;entryDy=0;entryPerimeter=0;" edge="1" parent="1">
                    <mxGeometry relative="1" as="geometry">
                        <mxPoint x="-1193.33" y="855" as="targetPoint"/>
                        <mxPoint x="-1037" y="855" as="sourcePoint"/>
                    </mxGeometry>
                </mxCell>
                <mxCell id="455" value="断开连接" style="html=1;verticalAlign=bottom;endArrow=block;exitX=1.1;exitY=0.825;exitDx=0;exitDy=0;exitPerimeter=0;entryX=-0.144;entryY=0.838;entryDx=0;entryDy=0;entryPerimeter=0;" edge="1" parent="1" source="439" target="443">
                    <mxGeometry relative="1" as="geometry">
                        <mxPoint x="-1173.8900000000003" y="914.1880000000001" as="sourcePoint"/>
                        <mxPoint x="-1013" y="914.1880000000001" as="targetPoint"/>
                    </mxGeometry>
                </mxCell>
                <mxCell id="457" value="返回用户数据" style="html=1;verticalAlign=bottom;endArrow=open;dashed=1;endSize=8;" edge="1" parent="1" source="439">
                    <mxGeometry relative="1" as="geometry">
                        <mxPoint x="-1485" y="809.1560000000002" as="targetPoint"/>
                        <mxPoint x="-1204" y="809" as="sourcePoint"/>
                    </mxGeometry>
                </mxCell>
                <mxCell id="458" value="选择聊天对象、输入聊天信息" style="html=1;verticalAlign=bottom;endArrow=block;" edge="1" parent="1" target="439">
                    <mxGeometry relative="1" as="geometry">
                        <mxPoint x="-1485" y="826.7760000000001" as="sourcePoint"/>
                        <mxPoint x="-1202" y="827" as="targetPoint"/>
                    </mxGeometry>
                </mxCell>
                <mxCell id="459" value="退出客户端" style="html=1;verticalAlign=bottom;endArrow=block;" edge="1" parent="1" target="439">
                    <mxGeometry relative="1" as="geometry">
                        <mxPoint x="-1485" y="896.5" as="sourcePoint"/>
                        <mxPoint x="-1219" y="897" as="targetPoint"/>
                    </mxGeometry>
                </mxCell>
                <mxCell id="460" value="关闭窗口" style="html=1;verticalAlign=bottom;endArrow=open;dashed=1;endSize=8;exitX=-0.2;exitY=0.899;exitDx=0;exitDy=0;exitPerimeter=0;entryX=1.111;entryY=0.894;entryDx=0;entryDy=0;entryPerimeter=0;" edge="1" parent="1" source="439" target="438">
                    <mxGeometry relative="1" as="geometry">
                        <mxPoint x="-1475" y="878.1020000000001" as="targetPoint"/>
                        <mxPoint x="-1197" y="878.1020000000001" as="sourcePoint"/>
                    </mxGeometry>
                </mxCell>
                <mxCell id="461" value="" style="shape=umlDestroy;whiteSpace=wrap;html=1;strokeWidth=3;" vertex="1" parent="1">
                    <mxGeometry x="-1505" y="947" width="30" height="30" as="geometry"/>
                </mxCell>
                <mxCell id="462" value="" style="shape=umlDestroy;whiteSpace=wrap;html=1;strokeWidth=3;" vertex="1" parent="1">
                    <mxGeometry x="-1371" y="947" width="30" height="30" as="geometry"/>
                </mxCell>
                <mxCell id="463" value="" style="shape=umlDestroy;whiteSpace=wrap;html=1;strokeWidth=3;" vertex="1" parent="1">
                    <mxGeometry x="-1214" y="947" width="30" height="30" as="geometry"/>
                </mxCell>
                <mxCell id="464" value="" style="shape=umlDestroy;whiteSpace=wrap;html=1;strokeWidth=3;" vertex="1" parent="1">
                    <mxGeometry x="-1047" y="947" width="30" height="30" as="geometry"/>
                </mxCell>
                <mxCell id="466" value="基于SOCKET的&#10;局域网通信系统" style="rounded=0;strokeWidth=2;fontFamily=Times New Roman;" vertex="1" parent="1">
                    <mxGeometry x="-1505" y="45" width="100" height="40" as="geometry"/>
                </mxCell>
                <mxCell id="467" value="启动&#10;服务" style="rounded=0;strokeWidth=2;fontFamily=Times New Roman;verticalAlign=middle;horizontal=1;direction=south;" vertex="1" parent="1">
                    <mxGeometry x="-1556" y="205" width="40" height="120" as="geometry"/>
                </mxCell>
                <mxCell id="468" value="建立&#10;连接" style="rounded=0;strokeWidth=2;fontFamily=Times New Roman;direction=south;" vertex="1" parent="1">
                    <mxGeometry x="-1475" y="205" width="40" height="120" as="geometry"/>
                </mxCell>
                <mxCell id="469" value="在线&#10;用户&#10;存储" style="rounded=0;strokeWidth=2;fontFamily=Times New Roman;direction=south;" vertex="1" parent="1">
                    <mxGeometry x="-1396" y="205" width="41" height="120" as="geometry"/>
                </mxCell>
                <mxCell id="470" value="服务器 Server" style="rounded=0;strokeWidth=2;fontFamily=Times New Roman;" vertex="1" parent="1">
                    <mxGeometry x="-1505" y="125" width="100" height="39" as="geometry"/>
                </mxCell>
                <mxCell id="471" value="" style="endArrow=none;fontFamily=Times New Roman;entryX=0.5;entryY=1;entryDx=0;entryDy=0;exitX=0;exitY=0.5;exitDx=0;exitDy=0;edgeStyle=orthogonalEdgeStyle;rounded=0;strokeWidth=2;html=1;" edge="1" parent="1" source="469" target="470">
                    <mxGeometry width="50" height="50" relative="1" as="geometry">
                        <mxPoint x="-1325" y="300" as="sourcePoint"/>
                        <mxPoint x="-1275" y="250" as="targetPoint"/>
                    </mxGeometry>
                </mxCell>
                <mxCell id="472" value="" style="endArrow=none;fontFamily=Times New Roman;exitX=0;exitY=0.5;exitDx=0;exitDy=0;edgeStyle=orthogonalEdgeStyle;rounded=0;entryX=0.5;entryY=1;entryDx=0;entryDy=0;strokeWidth=2;html=1;" edge="1" parent="1" source="468" target="470">
                    <mxGeometry width="50" height="50" relative="1" as="geometry">
                        <mxPoint x="-1365" y="228" as="sourcePoint"/>
                        <mxPoint x="-1455" y="170" as="targetPoint"/>
                    </mxGeometry>
                </mxCell>
                <mxCell id="473" value="" style="endArrow=none;fontFamily=Times New Roman;entryX=0.5;entryY=1;entryDx=0;entryDy=0;exitX=0;exitY=0.5;exitDx=0;exitDy=0;edgeStyle=orthogonalEdgeStyle;rounded=0;strokeWidth=2;html=1;" edge="1" parent="1" source="467" target="470">
                    <mxGeometry width="50" height="50" relative="1" as="geometry">
                        <mxPoint x="-1355" y="238" as="sourcePoint"/>
                        <mxPoint x="-1436" y="184" as="targetPoint"/>
                    </mxGeometry>
                </mxCell>
                <mxCell id="474" value="消息&#10;收发" style="rounded=0;strokeWidth=2;fontFamily=Times New Roman;verticalAlign=middle;horizontal=1;direction=south;" vertex="1" parent="1">
                    <mxGeometry x="-1315" y="205" width="40" height="120" as="geometry"/>
                </mxCell>
                <mxCell id="475" value="T&#10;C&#10;P&#10;/&#10;I&#10;P" style="rounded=0;strokeWidth=2;fontFamily=Times New Roman;direction=south;" vertex="1" parent="1">
                    <mxGeometry x="-1238" y="205" width="40" height="120" as="geometry"/>
                </mxCell>
                <mxCell id="476" value="" style="endArrow=none;fontFamily=Times New Roman;exitX=0;exitY=0.5;exitDx=0;exitDy=0;edgeStyle=orthogonalEdgeStyle;rounded=0;entryX=0.5;entryY=1;entryDx=0;entryDy=0;strokeWidth=2;html=1;" edge="1" parent="1" source="475" target="479">
                    <mxGeometry width="50" height="50" relative="1" as="geometry">
                        <mxPoint x="-1237" y="218" as="sourcePoint"/>
                        <mxPoint x="-1328" y="154" as="targetPoint"/>
                    </mxGeometry>
                </mxCell>
                <mxCell id="477" value="" style="endArrow=none;fontFamily=Times New Roman;entryX=0.5;entryY=1;entryDx=0;entryDy=0;exitX=0;exitY=0.5;exitDx=0;exitDy=0;edgeStyle=orthogonalEdgeStyle;rounded=0;strokeWidth=2;html=1;" edge="1" parent="1" source="474" target="470">
                    <mxGeometry width="50" height="50" relative="1" as="geometry">
                        <mxPoint x="-1155" y="228" as="sourcePoint"/>
                        <mxPoint x="-1256" y="154" as="targetPoint"/>
                    </mxGeometry>
                </mxCell>
                <mxCell id="478" value="S&#10;O&#10;C&#10;K&#10;E&#10;T" style="rounded=0;strokeWidth=2;fontFamily=Times New Roman;direction=south;" vertex="1" parent="1">
                    <mxGeometry x="-1161" y="205" width="40" height="120" as="geometry"/>
                </mxCell>
                <mxCell id="479" value="连接" style="rounded=0;strokeWidth=2;fontFamily=Times New Roman;" vertex="1" parent="1">
                    <mxGeometry x="-1268" y="124" width="100" height="40" as="geometry"/>
                </mxCell>
                <mxCell id="480" value="" style="endArrow=none;fontFamily=Times New Roman;exitX=0;exitY=0.5;exitDx=0;exitDy=0;edgeStyle=orthogonalEdgeStyle;rounded=0;entryX=0.5;entryY=1;entryDx=0;entryDy=0;strokeWidth=2;html=1;" edge="1" parent="1" source="478" target="479">
                    <mxGeometry width="50" height="50" relative="1" as="geometry">
                        <mxPoint x="-977" y="218" as="sourcePoint"/>
                        <mxPoint x="-1067" y="160" as="targetPoint"/>
                    </mxGeometry>
                </mxCell>
                <mxCell id="481" value="客户机 Client" style="rounded=0;strokeWidth=2;fontFamily=Times New Roman;" vertex="1" parent="1">
                    <mxGeometry x="-1742" y="124" width="100" height="40" as="geometry"/>
                </mxCell>
                <mxCell id="482" value="用户&#10;登录" style="rounded=0;strokeWidth=2;fontFamily=Times New Roman;verticalAlign=middle;horizontal=1;direction=south;" vertex="1" parent="1">
                    <mxGeometry x="-1864" y="205" width="40" height="120" as="geometry"/>
                </mxCell>
                <mxCell id="483" value="消息&#10;收发" style="rounded=0;strokeWidth=2;fontFamily=Times New Roman;direction=south;" vertex="1" parent="1">
                    <mxGeometry x="-1634" y="205" width="40" height="120" as="geometry"/>
                </mxCell>
                <mxCell id="484" value="" style="endArrow=none;fontFamily=Times New Roman;exitX=0;exitY=0.5;exitDx=0;exitDy=0;edgeStyle=orthogonalEdgeStyle;rounded=0;entryX=0.5;entryY=1;entryDx=0;entryDy=0;strokeWidth=2;html=1;" edge="1" parent="1" source="483" target="481">
                    <mxGeometry width="50" height="50" relative="1" as="geometry">
                        <mxPoint x="-1533" y="217" as="sourcePoint"/>
                        <mxPoint x="-1624" y="153" as="targetPoint"/>
                    </mxGeometry>
                </mxCell>
                <mxCell id="485" value="" style="endArrow=none;fontFamily=Times New Roman;entryX=0.5;entryY=1;entryDx=0;entryDy=0;exitX=0;exitY=0.5;exitDx=0;exitDy=0;edgeStyle=orthogonalEdgeStyle;rounded=0;strokeWidth=2;html=1;" edge="1" parent="1" source="482" target="481">
                    <mxGeometry width="50" height="50" relative="1" as="geometry">
                        <mxPoint x="-1523" y="227" as="sourcePoint"/>
                        <mxPoint x="-1624" y="153" as="targetPoint"/>
                    </mxGeometry>
                </mxCell>
                <mxCell id="486" value="" style="endArrow=none;fontFamily=Times New Roman;entryX=0.5;entryY=1;entryDx=0;entryDy=0;exitX=0.5;exitY=0;exitDx=0;exitDy=0;edgeStyle=orthogonalEdgeStyle;rounded=0;strokeWidth=2;html=1;" edge="1" parent="1" source="481" target="466">
                    <mxGeometry width="50" height="50" relative="1" as="geometry">
                        <mxPoint x="-1545" y="215" as="sourcePoint"/>
                        <mxPoint x="-1446" y="174" as="targetPoint"/>
                    </mxGeometry>
                </mxCell>
                <mxCell id="487" value="" style="endArrow=none;fontFamily=Times New Roman;entryX=0.5;entryY=1;entryDx=0;entryDy=0;exitX=0.5;exitY=0;exitDx=0;exitDy=0;edgeStyle=orthogonalEdgeStyle;rounded=0;strokeWidth=2;html=1;" edge="1" parent="1" source="470" target="466">
                    <mxGeometry width="50" height="50" relative="1" as="geometry">
                        <mxPoint x="-1535" y="225" as="sourcePoint"/>
                        <mxPoint x="-1436" y="184" as="targetPoint"/>
                    </mxGeometry>
                </mxCell>
                <mxCell id="488" value="" style="endArrow=none;fontFamily=Times New Roman;entryX=0.5;entryY=1;entryDx=0;entryDy=0;exitX=0.5;exitY=0;exitDx=0;exitDy=0;edgeStyle=orthogonalEdgeStyle;rounded=0;strokeWidth=2;html=1;" edge="1" parent="1" source="479" target="466">
                    <mxGeometry width="50" height="50" relative="1" as="geometry">
                        <mxPoint x="-1525" y="235" as="sourcePoint"/>
                        <mxPoint x="-1426" y="194" as="targetPoint"/>
                    </mxGeometry>
                </mxCell>
                <mxCell id="489" value="消息&#10;编辑" style="rounded=0;strokeWidth=2;fontFamily=Times New Roman;verticalAlign=middle;horizontal=1;direction=south;" vertex="1" parent="1">
                    <mxGeometry x="-1786" y="205" width="40" height="120" as="geometry"/>
                </mxCell>
                <mxCell id="490" value="" style="endArrow=none;fontFamily=Times New Roman;entryX=0.5;entryY=1;entryDx=0;entryDy=0;edgeStyle=orthogonalEdgeStyle;rounded=0;strokeWidth=2;html=1;exitX=0;exitY=0.5;exitDx=0;exitDy=0;" edge="1" parent="1" source="489" target="481">
                    <mxGeometry width="50" height="50" relative="1" as="geometry">
                        <mxPoint x="-1789" y="116" as="sourcePoint"/>
                        <mxPoint x="-1645" y="175" as="targetPoint"/>
                    </mxGeometry>
                </mxCell>
                <mxCell id="491" value="聊天&#10;对象&#10;选择" style="rounded=0;strokeWidth=2;fontFamily=Times New Roman;verticalAlign=middle;horizontal=1;direction=south;" vertex="1" parent="1">
                    <mxGeometry x="-1712" y="205" width="40" height="120" as="geometry"/>
                </mxCell>
                <mxCell id="492" value="" style="endArrow=none;fontFamily=Times New Roman;entryX=0.5;entryY=1;entryDx=0;entryDy=0;edgeStyle=orthogonalEdgeStyle;rounded=0;strokeWidth=2;html=1;exitX=0;exitY=0.5;exitDx=0;exitDy=0;" edge="1" parent="1" source="491" target="481">
                    <mxGeometry width="50" height="50" relative="1" as="geometry">
                        <mxPoint x="-1712" y="194" as="sourcePoint"/>
                        <mxPoint x="-1682" y="174" as="targetPoint"/>
                    </mxGeometry>
                </mxCell>
            </root>
        </mxGraphModel>
    </diagram>
</mxfile>